<mxfile host="app.diagrams.net" modified="2024-02-08T09:53:57.846Z" agent="Mozilla/5.0 (Windows NT 10.0; Win64; x64) AppleWebKit/537.36 (KHTML, like Gecko) Chrome/121.0.0.0 Safari/537.36" etag="PsAEdF-xxPXD-Hzu3c9b" version="23.1.2" type="device" pages="4">
  <diagram name="чубзики" id="B0CfuModqqjtVyTeBXi2">
    <mxGraphModel dx="1044" dy="706" grid="1" gridSize="10" guides="1" tooltips="1" connect="1" arrows="1" fold="1" page="1" pageScale="1" pageWidth="827" pageHeight="1169" math="0" shadow="0">
      <root>
        <mxCell id="0" />
        <mxCell id="1" parent="0" />
        <mxCell id="lG9g9Cs34jd75Aol2gDs-2" value="Участник" style="shape=umlActor;verticalLabelPosition=bottom;verticalAlign=top;html=1;outlineConnect=0;" vertex="1" parent="1">
          <mxGeometry x="140" y="160" width="30" height="60" as="geometry" />
        </mxCell>
        <mxCell id="lG9g9Cs34jd75Aol2gDs-3" value="Сотрудник Фонда" style="shape=umlActor;verticalLabelPosition=bottom;verticalAlign=top;html=1;outlineConnect=0;" vertex="1" parent="1">
          <mxGeometry x="140" y="260" width="30" height="60" as="geometry" />
        </mxCell>
        <mxCell id="lG9g9Cs34jd75Aol2gDs-7" value="Жюри" style="shape=umlActor;verticalLabelPosition=bottom;verticalAlign=top;html=1;outlineConnect=0;" vertex="1" parent="1">
          <mxGeometry x="140" y="360" width="30" height="60" as="geometry" />
        </mxCell>
        <mxCell id="lG9g9Cs34jd75Aol2gDs-9" value="" style="endArrow=open;endFill=1;endSize=12;html=1;rounded=0;" edge="1" parent="1">
          <mxGeometry width="160" relative="1" as="geometry">
            <mxPoint x="450" y="310" as="sourcePoint" />
            <mxPoint x="610" y="310" as="targetPoint" />
          </mxGeometry>
        </mxCell>
        <mxCell id="lG9g9Cs34jd75Aol2gDs-10" value="" style="endArrow=block;endSize=16;endFill=0;html=1;rounded=0;" edge="1" parent="1">
          <mxGeometry width="160" relative="1" as="geometry">
            <mxPoint x="450" y="400" as="sourcePoint" />
            <mxPoint x="610" y="400" as="targetPoint" />
          </mxGeometry>
        </mxCell>
        <mxCell id="lG9g9Cs34jd75Aol2gDs-11" value="include" style="endArrow=open;endSize=12;dashed=1;html=1;rounded=0;" edge="1" parent="1">
          <mxGeometry width="160" relative="1" as="geometry">
            <mxPoint x="450" y="470" as="sourcePoint" />
            <mxPoint x="610" y="470" as="targetPoint" />
            <mxPoint as="offset" />
          </mxGeometry>
        </mxCell>
        <mxCell id="54NWccIc7bCzFJl_29O6-1" value="Зарегистрироваться" style="ellipse;whiteSpace=wrap;html=1;" vertex="1" parent="1">
          <mxGeometry x="450" y="147.5" width="140" height="85" as="geometry" />
        </mxCell>
      </root>
    </mxGraphModel>
  </diagram>
  <diagram id="1-YfNJnEzyGuvq2Lq1Dl" name="сценарии">
    <mxGraphModel dx="4524" dy="1976" grid="1" gridSize="10" guides="1" tooltips="1" connect="1" arrows="1" fold="1" page="1" pageScale="1" pageWidth="827" pageHeight="1169" math="0" shadow="0">
      <root>
        <mxCell id="0" />
        <mxCell id="1" parent="0" />
        <mxCell id="Kw57JK5oYQejTs2OmPi5-1" style="rounded=0;orthogonalLoop=1;jettySize=auto;html=1;entryX=0;entryY=0.5;entryDx=0;entryDy=0;endArrow=none;endFill=0;" edge="1" parent="1" source="4FbIyIfQq2qIgxI06lXr-1" target="4FbIyIfQq2qIgxI06lXr-2">
          <mxGeometry relative="1" as="geometry" />
        </mxCell>
        <mxCell id="Kw57JK5oYQejTs2OmPi5-10" style="rounded=0;orthogonalLoop=1;jettySize=auto;html=1;entryX=0;entryY=0.5;entryDx=0;entryDy=0;endArrow=none;endFill=0;" edge="1" parent="1" source="4FbIyIfQq2qIgxI06lXr-1" target="Kw57JK5oYQejTs2OmPi5-5">
          <mxGeometry relative="1" as="geometry">
            <mxPoint x="310" y="420" as="sourcePoint" />
          </mxGeometry>
        </mxCell>
        <mxCell id="4FbIyIfQq2qIgxI06lXr-1" value="Неавторизованный&lt;br&gt;пользователь" style="shape=umlActor;verticalLabelPosition=bottom;verticalAlign=top;html=1;outlineConnect=0;" vertex="1" parent="1">
          <mxGeometry x="256" y="278" width="30" height="60" as="geometry" />
        </mxCell>
        <mxCell id="Kw57JK5oYQejTs2OmPi5-13" style="edgeStyle=orthogonalEdgeStyle;rounded=0;orthogonalLoop=1;jettySize=auto;html=1;dashed=1;endArrow=none;endFill=0;" edge="1" parent="1" source="Kw57JK5oYQejTs2OmPi5-11" target="4FbIyIfQq2qIgxI06lXr-1">
          <mxGeometry relative="1" as="geometry" />
        </mxCell>
        <mxCell id="Kw57JK5oYQejTs2OmPi5-11" value="После регистрации или входа пользователь становится участником, жюри или сотрудником Фонда (в зависимости от его роли в Фонде)." style="shape=note;whiteSpace=wrap;html=1;backgroundOutline=1;darkOpacity=0.05;size=11;" vertex="1" parent="1">
          <mxGeometry x="26" y="248" width="160" height="120" as="geometry" />
        </mxCell>
        <mxCell id="Kw57JK5oYQejTs2OmPi5-50" value="Регистрация и вход" style="swimlane;whiteSpace=wrap;html=1;" vertex="1" parent="1">
          <mxGeometry x="354" y="20" width="626" height="539.5" as="geometry" />
        </mxCell>
        <mxCell id="4FbIyIfQq2qIgxI06lXr-2" value="Зарегистрироваться" style="ellipse;whiteSpace=wrap;html=1;" vertex="1" parent="Kw57JK5oYQejTs2OmPi5-50">
          <mxGeometry x="22" y="137.5" width="140" height="85" as="geometry" />
        </mxCell>
        <mxCell id="4FbIyIfQq2qIgxI06lXr-3" value="" style="endArrow=block;endSize=16;endFill=0;html=1;rounded=0;entryX=1;entryY=0.5;entryDx=0;entryDy=0;exitX=0;exitY=0.5;exitDx=0;exitDy=0;" edge="1" parent="Kw57JK5oYQejTs2OmPi5-50" source="4FbIyIfQq2qIgxI06lXr-4" target="4FbIyIfQq2qIgxI06lXr-2">
          <mxGeometry x="-0.5" y="-20" width="160" relative="1" as="geometry">
            <mxPoint x="172" y="240" as="sourcePoint" />
            <mxPoint x="332" y="240" as="targetPoint" />
            <mxPoint as="offset" />
          </mxGeometry>
        </mxCell>
        <mxCell id="4FbIyIfQq2qIgxI06lXr-4" value="&lt;br&gt;Зарегистрироваться с помощью внешних аккаунтов" style="ellipse;whiteSpace=wrap;html=1;" vertex="1" parent="Kw57JK5oYQejTs2OmPi5-50">
          <mxGeometry x="242" y="85.5" width="140" height="85" as="geometry" />
        </mxCell>
        <mxCell id="Kw57JK5oYQejTs2OmPi5-2" value="Заполнить анкету" style="ellipse;whiteSpace=wrap;html=1;" vertex="1" parent="Kw57JK5oYQejTs2OmPi5-50">
          <mxGeometry x="242" y="190.5" width="140" height="85" as="geometry" />
        </mxCell>
        <mxCell id="Kw57JK5oYQejTs2OmPi5-3" value="" style="endArrow=block;endSize=16;endFill=0;html=1;rounded=0;exitX=0;exitY=0.5;exitDx=0;exitDy=0;entryX=1;entryY=0.5;entryDx=0;entryDy=0;" edge="1" parent="Kw57JK5oYQejTs2OmPi5-50" source="Kw57JK5oYQejTs2OmPi5-2" target="4FbIyIfQq2qIgxI06lXr-2">
          <mxGeometry width="160" relative="1" as="geometry">
            <mxPoint x="272" y="280" as="sourcePoint" />
            <mxPoint x="112" y="280" as="targetPoint" />
          </mxGeometry>
        </mxCell>
        <mxCell id="Kw57JK5oYQejTs2OmPi5-5" value="Войти в аккаунт" style="ellipse;whiteSpace=wrap;html=1;" vertex="1" parent="Kw57JK5oYQejTs2OmPi5-50">
          <mxGeometry x="22" y="352.5" width="140" height="85" as="geometry" />
        </mxCell>
        <mxCell id="Kw57JK5oYQejTs2OmPi5-6" value="" style="endArrow=block;endSize=16;endFill=0;html=1;rounded=0;entryX=1;entryY=0.5;entryDx=0;entryDy=0;exitX=0;exitY=0.5;exitDx=0;exitDy=0;" edge="1" parent="Kw57JK5oYQejTs2OmPi5-50" source="Kw57JK5oYQejTs2OmPi5-7" target="Kw57JK5oYQejTs2OmPi5-5">
          <mxGeometry x="-0.5" y="-20" width="160" relative="1" as="geometry">
            <mxPoint x="172" y="455" as="sourcePoint" />
            <mxPoint x="332" y="455" as="targetPoint" />
            <mxPoint as="offset" />
          </mxGeometry>
        </mxCell>
        <mxCell id="Kw57JK5oYQejTs2OmPi5-7" value="Войти с помощью внешних аккаунтов" style="ellipse;whiteSpace=wrap;html=1;" vertex="1" parent="Kw57JK5oYQejTs2OmPi5-50">
          <mxGeometry x="242" y="300.5" width="140" height="85" as="geometry" />
        </mxCell>
        <mxCell id="Kw57JK5oYQejTs2OmPi5-8" value="Заполнить поля &quot;логин&quot; и &quot;пароль&quot;" style="ellipse;whiteSpace=wrap;html=1;" vertex="1" parent="Kw57JK5oYQejTs2OmPi5-50">
          <mxGeometry x="242" y="405.5" width="140" height="85" as="geometry" />
        </mxCell>
        <mxCell id="Kw57JK5oYQejTs2OmPi5-9" value="" style="endArrow=block;endSize=16;endFill=0;html=1;rounded=0;exitX=0;exitY=0.5;exitDx=0;exitDy=0;entryX=1;entryY=0.5;entryDx=0;entryDy=0;" edge="1" parent="Kw57JK5oYQejTs2OmPi5-50" source="Kw57JK5oYQejTs2OmPi5-8" target="Kw57JK5oYQejTs2OmPi5-5">
          <mxGeometry width="160" relative="1" as="geometry">
            <mxPoint x="272" y="495" as="sourcePoint" />
            <mxPoint x="112" y="495" as="targetPoint" />
          </mxGeometry>
        </mxCell>
        <mxCell id="Kw57JK5oYQejTs2OmPi5-15" style="rounded=0;orthogonalLoop=1;jettySize=auto;html=1;entryX=1;entryY=0.5;entryDx=0;entryDy=0;dashed=1;endArrow=none;endFill=0;exitX=0;exitY=0;exitDx=0;exitDy=0;exitPerimeter=0;" edge="1" parent="Kw57JK5oYQejTs2OmPi5-50" source="Kw57JK5oYQejTs2OmPi5-14" target="4FbIyIfQq2qIgxI06lXr-4">
          <mxGeometry relative="1" as="geometry" />
        </mxCell>
        <mxCell id="Kw57JK5oYQejTs2OmPi5-16" style="rounded=0;orthogonalLoop=1;jettySize=auto;html=1;entryX=1;entryY=0.5;entryDx=0;entryDy=0;dashed=1;endArrow=none;endFill=0;exitX=0;exitY=1;exitDx=0;exitDy=0;exitPerimeter=0;" edge="1" parent="Kw57JK5oYQejTs2OmPi5-50" source="Kw57JK5oYQejTs2OmPi5-14" target="Kw57JK5oYQejTs2OmPi5-7">
          <mxGeometry relative="1" as="geometry" />
        </mxCell>
        <mxCell id="Kw57JK5oYQejTs2OmPi5-14" value="Пользователь может зарегистрироваться и войти с помощью аккаунта Яндекс или Google." style="shape=note;whiteSpace=wrap;html=1;backgroundOutline=1;darkOpacity=0.05;size=11;" vertex="1" parent="Kw57JK5oYQejTs2OmPi5-50">
          <mxGeometry x="462" y="187.5" width="130" height="100" as="geometry" />
        </mxCell>
      </root>
    </mxGraphModel>
  </diagram>
  <diagram id="8DMgoZNDN7l1KmwDOecQ" name="Страница — 3">
    <mxGraphModel dx="1048" dy="581" grid="1" gridSize="10" guides="1" tooltips="1" connect="1" arrows="1" fold="1" page="1" pageScale="1" pageWidth="827" pageHeight="1169" math="0" shadow="0">
      <root>
        <mxCell id="0" />
        <mxCell id="1" parent="0" />
        <mxCell id="AHCntpWRQgYivBpI9raX-1" style="rounded=0;orthogonalLoop=1;jettySize=auto;html=1;entryX=0;entryY=0.5;entryDx=0;entryDy=0;endArrow=none;endFill=0;" edge="1" parent="1" source="AHCntpWRQgYivBpI9raX-3" target="AHCntpWRQgYivBpI9raX-6">
          <mxGeometry relative="1" as="geometry" />
        </mxCell>
        <mxCell id="AHCntpWRQgYivBpI9raX-2" style="rounded=0;orthogonalLoop=1;jettySize=auto;html=1;entryX=0;entryY=0.5;entryDx=0;entryDy=0;endArrow=none;endFill=0;" edge="1" parent="1" source="AHCntpWRQgYivBpI9raX-3" target="AHCntpWRQgYivBpI9raX-5">
          <mxGeometry relative="1" as="geometry" />
        </mxCell>
        <mxCell id="AHCntpWRQgYivBpI9raX-3" value="Участник&lt;br&gt;грантового конкурса" style="shape=umlActor;verticalLabelPosition=bottom;verticalAlign=top;html=1;outlineConnect=0;" vertex="1" parent="1">
          <mxGeometry x="250" y="952.5" width="30" height="60" as="geometry" />
        </mxCell>
        <mxCell id="AHCntpWRQgYivBpI9raX-4" value="Работа участника конкурса с заявками" style="swimlane;startSize=23;fillStyle=auto;" vertex="1" parent="1">
          <mxGeometry x="354" y="592.5" width="626" height="867.5" as="geometry" />
        </mxCell>
        <mxCell id="AHCntpWRQgYivBpI9raX-5" value="Подача заявки" style="ellipse;whiteSpace=wrap;html=1;" vertex="1" parent="AHCntpWRQgYivBpI9raX-4">
          <mxGeometry x="22" y="391.25" width="140" height="85" as="geometry" />
        </mxCell>
        <mxCell id="AHCntpWRQgYivBpI9raX-6" value="Добавление описания &lt;br&gt;организации" style="ellipse;whiteSpace=wrap;html=1;" vertex="1" parent="AHCntpWRQgYivBpI9raX-4">
          <mxGeometry x="22" y="140" width="140" height="85" as="geometry" />
        </mxCell>
        <mxCell id="AHCntpWRQgYivBpI9raX-7" value="Добавление названия организации" style="ellipse;whiteSpace=wrap;html=1;" vertex="1" parent="AHCntpWRQgYivBpI9raX-4">
          <mxGeometry x="246" y="40" width="140" height="85" as="geometry" />
        </mxCell>
        <mxCell id="AHCntpWRQgYivBpI9raX-8" style="rounded=0;orthogonalLoop=1;jettySize=auto;html=1;dashed=1;exitX=1;exitY=0.5;exitDx=0;exitDy=0;entryX=0;entryY=0.5;entryDx=0;entryDy=0;" edge="1" parent="AHCntpWRQgYivBpI9raX-4" source="AHCntpWRQgYivBpI9raX-6" target="AHCntpWRQgYivBpI9raX-7">
          <mxGeometry relative="1" as="geometry" />
        </mxCell>
        <mxCell id="AHCntpWRQgYivBpI9raX-9" value="include" style="edgeLabel;html=1;align=center;verticalAlign=middle;resizable=0;points=[];" vertex="1" connectable="0" parent="AHCntpWRQgYivBpI9raX-8">
          <mxGeometry x="-0.1988" relative="1" as="geometry">
            <mxPoint x="14" y="-17" as="offset" />
          </mxGeometry>
        </mxCell>
        <mxCell id="AHCntpWRQgYivBpI9raX-10" value="Добавление списка сотрудников" style="ellipse;whiteSpace=wrap;html=1;" vertex="1" parent="AHCntpWRQgYivBpI9raX-4">
          <mxGeometry x="246" y="137.5" width="140" height="85" as="geometry" />
        </mxCell>
        <mxCell id="AHCntpWRQgYivBpI9raX-11" style="rounded=0;orthogonalLoop=1;jettySize=auto;html=1;exitX=1;exitY=0.5;exitDx=0;exitDy=0;entryX=0;entryY=0.5;entryDx=0;entryDy=0;dashed=1;" edge="1" parent="AHCntpWRQgYivBpI9raX-4" source="AHCntpWRQgYivBpI9raX-6" target="AHCntpWRQgYivBpI9raX-10">
          <mxGeometry relative="1" as="geometry" />
        </mxCell>
        <mxCell id="AHCntpWRQgYivBpI9raX-12" value="include" style="edgeLabel;html=1;align=center;verticalAlign=middle;resizable=0;points=[];" vertex="1" connectable="0" parent="AHCntpWRQgYivBpI9raX-11">
          <mxGeometry x="-0.0076" y="1" relative="1" as="geometry">
            <mxPoint x="5" as="offset" />
          </mxGeometry>
        </mxCell>
        <mxCell id="AHCntpWRQgYivBpI9raX-13" value="Загрузка файла с описанием организации" style="ellipse;whiteSpace=wrap;html=1;" vertex="1" parent="AHCntpWRQgYivBpI9raX-4">
          <mxGeometry x="246" y="240" width="140" height="85" as="geometry" />
        </mxCell>
        <mxCell id="AHCntpWRQgYivBpI9raX-14" style="rounded=0;orthogonalLoop=1;jettySize=auto;html=1;exitX=1;exitY=0.5;exitDx=0;exitDy=0;entryX=0;entryY=0.5;entryDx=0;entryDy=0;dashed=1;" edge="1" parent="AHCntpWRQgYivBpI9raX-4" source="AHCntpWRQgYivBpI9raX-6" target="AHCntpWRQgYivBpI9raX-13">
          <mxGeometry relative="1" as="geometry" />
        </mxCell>
        <mxCell id="AHCntpWRQgYivBpI9raX-15" value="include" style="edgeLabel;html=1;align=center;verticalAlign=middle;resizable=0;points=[];" vertex="1" connectable="0" parent="AHCntpWRQgYivBpI9raX-14">
          <mxGeometry x="0.2353" y="-1" relative="1" as="geometry">
            <mxPoint x="-5" y="-12" as="offset" />
          </mxGeometry>
        </mxCell>
        <mxCell id="AHCntpWRQgYivBpI9raX-16" value="Заполнение&lt;br&gt;информации о научном исследовании" style="ellipse;whiteSpace=wrap;html=1;" vertex="1" parent="AHCntpWRQgYivBpI9raX-4">
          <mxGeometry x="245" y="347.5" width="140" height="85" as="geometry" />
        </mxCell>
        <mxCell id="AHCntpWRQgYivBpI9raX-17" style="rounded=0;orthogonalLoop=1;jettySize=auto;html=1;exitX=1;exitY=0.5;exitDx=0;exitDy=0;entryX=0;entryY=0.5;entryDx=0;entryDy=0;dashed=1;" edge="1" parent="AHCntpWRQgYivBpI9raX-4" source="AHCntpWRQgYivBpI9raX-5" target="AHCntpWRQgYivBpI9raX-16">
          <mxGeometry relative="1" as="geometry" />
        </mxCell>
        <mxCell id="AHCntpWRQgYivBpI9raX-18" value="include" style="edgeLabel;html=1;align=center;verticalAlign=middle;resizable=0;points=[];" vertex="1" connectable="0" parent="AHCntpWRQgYivBpI9raX-17">
          <mxGeometry x="-0.093" y="-2" relative="1" as="geometry">
            <mxPoint as="offset" />
          </mxGeometry>
        </mxCell>
        <mxCell id="AHCntpWRQgYivBpI9raX-19" style="edgeStyle=orthogonalEdgeStyle;rounded=0;orthogonalLoop=1;jettySize=auto;html=1;entryX=1;entryY=0.5;entryDx=0;entryDy=0;dashed=1;endArrow=none;endFill=0;" edge="1" parent="AHCntpWRQgYivBpI9raX-4" source="AHCntpWRQgYivBpI9raX-20" target="AHCntpWRQgYivBpI9raX-16">
          <mxGeometry relative="1" as="geometry" />
        </mxCell>
        <mxCell id="AHCntpWRQgYivBpI9raX-20" value="Название, тема, описание, список участвующих в исследовании сотрудников, сроки выполнения, запрашиваемая сумма и смета." style="shape=note;whiteSpace=wrap;html=1;backgroundOutline=1;darkOpacity=0.05;size=11;" vertex="1" parent="AHCntpWRQgYivBpI9raX-4">
          <mxGeometry x="436" y="336.5" width="170" height="107" as="geometry" />
        </mxCell>
        <mxCell id="AHCntpWRQgYivBpI9raX-21" value="Удалить заявку" style="ellipse;whiteSpace=wrap;html=1;" vertex="1" parent="AHCntpWRQgYivBpI9raX-4">
          <mxGeometry x="36" y="686.5" width="140" height="85" as="geometry" />
        </mxCell>
        <mxCell id="AHCntpWRQgYivBpI9raX-22" value="Просмотреть список своих заявок" style="ellipse;whiteSpace=wrap;html=1;" vertex="1" parent="AHCntpWRQgYivBpI9raX-4">
          <mxGeometry x="36" y="576.5" width="140" height="85" as="geometry" />
        </mxCell>
        <mxCell id="AHCntpWRQgYivBpI9raX-23" value="Редактировать авансовый отчет одобренной заявки" style="ellipse;whiteSpace=wrap;html=1;" vertex="1" parent="AHCntpWRQgYivBpI9raX-4">
          <mxGeometry x="260" y="576.5" width="140" height="85" as="geometry" />
        </mxCell>
        <mxCell id="AHCntpWRQgYivBpI9raX-24" value="" style="endArrow=block;endSize=16;endFill=0;html=1;rounded=0;exitX=0;exitY=0.5;exitDx=0;exitDy=0;entryX=1;entryY=0.5;entryDx=0;entryDy=0;" edge="1" parent="AHCntpWRQgYivBpI9raX-4" source="AHCntpWRQgYivBpI9raX-23" target="AHCntpWRQgYivBpI9raX-22">
          <mxGeometry width="160" relative="1" as="geometry">
            <mxPoint x="270" y="676.5" as="sourcePoint" />
            <mxPoint x="190" y="623.5" as="targetPoint" />
          </mxGeometry>
        </mxCell>
        <mxCell id="Cmw2N7iUd9lc4TZhHyqJ-2" value="" style="rounded=0;orthogonalLoop=1;jettySize=auto;html=1;dashed=1;exitX=1;exitY=0.5;exitDx=0;exitDy=0;entryX=0;entryY=0.5;entryDx=0;entryDy=0;" edge="1" parent="AHCntpWRQgYivBpI9raX-4" source="AHCntpWRQgYivBpI9raX-5" target="Cmw2N7iUd9lc4TZhHyqJ-1">
          <mxGeometry relative="1" as="geometry" />
        </mxCell>
        <mxCell id="Cmw2N7iUd9lc4TZhHyqJ-3" value="include" style="edgeLabel;html=1;align=center;verticalAlign=middle;resizable=0;points=[];" vertex="1" connectable="0" parent="Cmw2N7iUd9lc4TZhHyqJ-2">
          <mxGeometry x="-0.2533" y="1" relative="1" as="geometry">
            <mxPoint x="9" y="1" as="offset" />
          </mxGeometry>
        </mxCell>
        <mxCell id="Cmw2N7iUd9lc4TZhHyqJ-1" value="Выбор организации из списка" style="ellipse;whiteSpace=wrap;html=1;" vertex="1" parent="AHCntpWRQgYivBpI9raX-4">
          <mxGeometry x="243" y="443.5" width="140" height="85" as="geometry" />
        </mxCell>
        <mxCell id="AHCntpWRQgYivBpI9raX-25" style="rounded=0;orthogonalLoop=1;jettySize=auto;html=1;entryX=0;entryY=0.5;entryDx=0;entryDy=0;endArrow=none;endFill=0;" edge="1" parent="1" source="AHCntpWRQgYivBpI9raX-3" target="AHCntpWRQgYivBpI9raX-21">
          <mxGeometry relative="1" as="geometry">
            <mxPoint x="296" y="964" as="sourcePoint" />
            <mxPoint x="386" y="1048" as="targetPoint" />
          </mxGeometry>
        </mxCell>
        <mxCell id="AHCntpWRQgYivBpI9raX-26" style="rounded=0;orthogonalLoop=1;jettySize=auto;html=1;entryX=0;entryY=0.5;entryDx=0;entryDy=0;endArrow=none;endFill=0;" edge="1" parent="1" source="AHCntpWRQgYivBpI9raX-3" target="AHCntpWRQgYivBpI9raX-22">
          <mxGeometry relative="1" as="geometry">
            <mxPoint x="296" y="1023" as="sourcePoint" />
            <mxPoint x="386" y="1203" as="targetPoint" />
          </mxGeometry>
        </mxCell>
      </root>
    </mxGraphModel>
  </diagram>
  <diagram id="_Y1zHbbsw93-yukVEc-i" name="Страница — 4">
    <mxGraphModel dx="1131" dy="-675" grid="1" gridSize="10" guides="1" tooltips="1" connect="1" arrows="1" fold="1" page="1" pageScale="1" pageWidth="827" pageHeight="1169" math="0" shadow="0">
      <root>
        <mxCell id="0" />
        <mxCell id="1" parent="0" />
        <mxCell id="MmvqRHkEWOUDkkOpJDoZ-1" style="rounded=0;orthogonalLoop=1;jettySize=auto;html=1;entryX=0;entryY=0.5;entryDx=0;entryDy=0;endArrow=none;endFill=0;" edge="1" parent="1" source="MmvqRHkEWOUDkkOpJDoZ-30" target="MmvqRHkEWOUDkkOpJDoZ-5">
          <mxGeometry relative="1" as="geometry" />
        </mxCell>
        <mxCell id="MmvqRHkEWOUDkkOpJDoZ-2" style="rounded=0;orthogonalLoop=1;jettySize=auto;html=1;entryX=0;entryY=0.5;entryDx=0;entryDy=0;endArrow=none;endFill=0;" edge="1" parent="1" source="MmvqRHkEWOUDkkOpJDoZ-30" target="MmvqRHkEWOUDkkOpJDoZ-4">
          <mxGeometry relative="1" as="geometry" />
        </mxCell>
        <mxCell id="MmvqRHkEWOUDkkOpJDoZ-3" value="Работа сотрудников с заявками" style="swimlane;startSize=23;fillStyle=auto;" vertex="1" parent="1">
          <mxGeometry x="354" y="1340" width="626" height="780" as="geometry" />
        </mxCell>
        <mxCell id="MmvqRHkEWOUDkkOpJDoZ-4" value="Просмотреть список заявок" style="ellipse;whiteSpace=wrap;html=1;" vertex="1" parent="MmvqRHkEWOUDkkOpJDoZ-3">
          <mxGeometry x="26" y="443.5" width="140" height="85" as="geometry" />
        </mxCell>
        <mxCell id="MmvqRHkEWOUDkkOpJDoZ-5" value="Изменение предварительной информации о грантовом конкурсе" style="ellipse;whiteSpace=wrap;html=1;" vertex="1" parent="MmvqRHkEWOUDkkOpJDoZ-3">
          <mxGeometry x="26" y="236" width="140" height="85" as="geometry" />
        </mxCell>
        <mxCell id="MmvqRHkEWOUDkkOpJDoZ-6" value="Изменить максимальную сумму финансирования" style="ellipse;whiteSpace=wrap;html=1;" vertex="1" parent="MmvqRHkEWOUDkkOpJDoZ-3">
          <mxGeometry x="250" y="136" width="140" height="85" as="geometry" />
        </mxCell>
        <mxCell id="MmvqRHkEWOUDkkOpJDoZ-7" style="rounded=0;orthogonalLoop=1;jettySize=auto;html=1;dashed=1;exitX=1;exitY=0.5;exitDx=0;exitDy=0;entryX=0;entryY=0.5;entryDx=0;entryDy=0;" edge="1" parent="MmvqRHkEWOUDkkOpJDoZ-3" source="MmvqRHkEWOUDkkOpJDoZ-5" target="MmvqRHkEWOUDkkOpJDoZ-6">
          <mxGeometry relative="1" as="geometry" />
        </mxCell>
        <mxCell id="MmvqRHkEWOUDkkOpJDoZ-8" value="include" style="edgeLabel;html=1;align=center;verticalAlign=middle;resizable=0;points=[];" vertex="1" connectable="0" parent="MmvqRHkEWOUDkkOpJDoZ-7">
          <mxGeometry x="-0.1988" relative="1" as="geometry">
            <mxPoint x="14" y="-17" as="offset" />
          </mxGeometry>
        </mxCell>
        <mxCell id="MmvqRHkEWOUDkkOpJDoZ-9" value="Изменить&amp;nbsp;список критериев" style="ellipse;whiteSpace=wrap;html=1;" vertex="1" parent="MmvqRHkEWOUDkkOpJDoZ-3">
          <mxGeometry x="250" y="233.5" width="140" height="85" as="geometry" />
        </mxCell>
        <mxCell id="MmvqRHkEWOUDkkOpJDoZ-10" style="rounded=0;orthogonalLoop=1;jettySize=auto;html=1;exitX=1;exitY=0.5;exitDx=0;exitDy=0;entryX=0;entryY=0.5;entryDx=0;entryDy=0;dashed=1;" edge="1" parent="MmvqRHkEWOUDkkOpJDoZ-3" source="MmvqRHkEWOUDkkOpJDoZ-5" target="MmvqRHkEWOUDkkOpJDoZ-9">
          <mxGeometry relative="1" as="geometry" />
        </mxCell>
        <mxCell id="MmvqRHkEWOUDkkOpJDoZ-11" value="include" style="edgeLabel;html=1;align=center;verticalAlign=middle;resizable=0;points=[];" vertex="1" connectable="0" parent="MmvqRHkEWOUDkkOpJDoZ-10">
          <mxGeometry x="-0.0076" y="1" relative="1" as="geometry">
            <mxPoint x="5" as="offset" />
          </mxGeometry>
        </mxCell>
        <mxCell id="MmvqRHkEWOUDkkOpJDoZ-12" value="Изменить список жюри" style="ellipse;whiteSpace=wrap;html=1;" vertex="1" parent="MmvqRHkEWOUDkkOpJDoZ-3">
          <mxGeometry x="250" y="336" width="140" height="85" as="geometry" />
        </mxCell>
        <mxCell id="MmvqRHkEWOUDkkOpJDoZ-13" style="rounded=0;orthogonalLoop=1;jettySize=auto;html=1;exitX=1;exitY=0.5;exitDx=0;exitDy=0;entryX=0;entryY=0.5;entryDx=0;entryDy=0;dashed=1;" edge="1" parent="MmvqRHkEWOUDkkOpJDoZ-3" source="MmvqRHkEWOUDkkOpJDoZ-5" target="MmvqRHkEWOUDkkOpJDoZ-12">
          <mxGeometry relative="1" as="geometry" />
        </mxCell>
        <mxCell id="MmvqRHkEWOUDkkOpJDoZ-14" value="include" style="edgeLabel;html=1;align=center;verticalAlign=middle;resizable=0;points=[];" vertex="1" connectable="0" parent="MmvqRHkEWOUDkkOpJDoZ-13">
          <mxGeometry x="0.2353" y="-1" relative="1" as="geometry">
            <mxPoint x="-5" y="-12" as="offset" />
          </mxGeometry>
        </mxCell>
        <mxCell id="MmvqRHkEWOUDkkOpJDoZ-15" value="Просмотреть заявку" style="ellipse;whiteSpace=wrap;html=1;" vertex="1" parent="MmvqRHkEWOUDkkOpJDoZ-3">
          <mxGeometry x="249" y="443.5" width="140" height="85" as="geometry" />
        </mxCell>
        <mxCell id="MmvqRHkEWOUDkkOpJDoZ-16" style="edgeStyle=orthogonalEdgeStyle;rounded=0;orthogonalLoop=1;jettySize=auto;html=1;exitX=0;exitY=0.5;exitDx=0;exitDy=0;entryX=1;entryY=0.5;entryDx=0;entryDy=0;dashed=1;" edge="1" parent="MmvqRHkEWOUDkkOpJDoZ-3" source="MmvqRHkEWOUDkkOpJDoZ-15" target="MmvqRHkEWOUDkkOpJDoZ-4">
          <mxGeometry relative="1" as="geometry" />
        </mxCell>
        <mxCell id="MmvqRHkEWOUDkkOpJDoZ-17" value="extend" style="edgeLabel;html=1;align=center;verticalAlign=middle;resizable=0;points=[];" vertex="1" connectable="0" parent="MmvqRHkEWOUDkkOpJDoZ-16">
          <mxGeometry x="-0.093" y="-2" relative="1" as="geometry">
            <mxPoint as="offset" />
          </mxGeometry>
        </mxCell>
        <mxCell id="MmvqRHkEWOUDkkOpJDoZ-18" style="edgeStyle=orthogonalEdgeStyle;rounded=0;orthogonalLoop=1;jettySize=auto;html=1;entryX=1;entryY=0.5;entryDx=0;entryDy=0;dashed=1;endArrow=classic;endFill=1;exitX=0;exitY=0.5;exitDx=0;exitDy=0;" edge="1" parent="MmvqRHkEWOUDkkOpJDoZ-3" source="MmvqRHkEWOUDkkOpJDoZ-20" target="MmvqRHkEWOUDkkOpJDoZ-15">
          <mxGeometry relative="1" as="geometry">
            <mxPoint x="390" y="486" as="targetPoint" />
            <mxPoint x="453" y="486" as="sourcePoint" />
          </mxGeometry>
        </mxCell>
        <mxCell id="MmvqRHkEWOUDkkOpJDoZ-19" value="extend" style="edgeLabel;html=1;align=center;verticalAlign=middle;resizable=0;points=[];" vertex="1" connectable="0" parent="MmvqRHkEWOUDkkOpJDoZ-18">
          <mxGeometry x="0.1594" relative="1" as="geometry">
            <mxPoint x="9" as="offset" />
          </mxGeometry>
        </mxCell>
        <mxCell id="MmvqRHkEWOUDkkOpJDoZ-20" value="Скачать заявку в виде файла" style="ellipse;whiteSpace=wrap;html=1;" vertex="1" parent="MmvqRHkEWOUDkkOpJDoZ-3">
          <mxGeometry x="460" y="443.5" width="140" height="85" as="geometry" />
        </mxCell>
        <mxCell id="MmvqRHkEWOUDkkOpJDoZ-21" value="Определение критериев отбора заявок" style="ellipse;whiteSpace=wrap;html=1;" vertex="1" parent="MmvqRHkEWOUDkkOpJDoZ-3">
          <mxGeometry x="26" y="60" width="140" height="85" as="geometry" />
        </mxCell>
        <mxCell id="MmvqRHkEWOUDkkOpJDoZ-22" value="Оценивание заявок" style="ellipse;whiteSpace=wrap;html=1;" vertex="1" parent="MmvqRHkEWOUDkkOpJDoZ-3">
          <mxGeometry x="26" y="552.5" width="140" height="85" as="geometry" />
        </mxCell>
        <mxCell id="MmvqRHkEWOUDkkOpJDoZ-23" value="Просмотреть рейтинг лучших заявок" style="ellipse;whiteSpace=wrap;html=1;" vertex="1" parent="MmvqRHkEWOUDkkOpJDoZ-3">
          <mxGeometry x="26" y="673.5" width="140" height="85" as="geometry" />
        </mxCell>
        <mxCell id="MmvqRHkEWOUDkkOpJDoZ-24" value="Для каждого критерия ставится оценка, для каждой заявки автоматически высчитывается взвешенная сумма." style="shape=note;whiteSpace=wrap;html=1;backgroundOutline=1;darkOpacity=0.05;size=11;" vertex="1" parent="MmvqRHkEWOUDkkOpJDoZ-3">
          <mxGeometry x="228" y="541.5" width="170" height="107" as="geometry" />
        </mxCell>
        <mxCell id="MmvqRHkEWOUDkkOpJDoZ-25" style="edgeStyle=orthogonalEdgeStyle;rounded=0;orthogonalLoop=1;jettySize=auto;html=1;entryX=1;entryY=0.5;entryDx=0;entryDy=0;dashed=1;endArrow=none;endFill=0;exitX=0;exitY=0.5;exitDx=0;exitDy=0;exitPerimeter=0;" edge="1" parent="MmvqRHkEWOUDkkOpJDoZ-3" source="MmvqRHkEWOUDkkOpJDoZ-24" target="MmvqRHkEWOUDkkOpJDoZ-22">
          <mxGeometry relative="1" as="geometry">
            <mxPoint x="217" y="594.29" as="sourcePoint" />
            <mxPoint x="166" y="594.29" as="targetPoint" />
          </mxGeometry>
        </mxCell>
        <mxCell id="MmvqRHkEWOUDkkOpJDoZ-26" value="По окончании конкурса информация о заявках, прошедших грантовый конкурс, автоматически отправляется в бухгалтерию." style="shape=note;whiteSpace=wrap;html=1;backgroundOutline=1;darkOpacity=0.05;size=11;" vertex="1" parent="MmvqRHkEWOUDkkOpJDoZ-3">
          <mxGeometry x="228" y="662.5" width="170" height="107" as="geometry" />
        </mxCell>
        <mxCell id="MmvqRHkEWOUDkkOpJDoZ-27" style="edgeStyle=orthogonalEdgeStyle;rounded=0;orthogonalLoop=1;jettySize=auto;html=1;entryX=1;entryY=0.5;entryDx=0;entryDy=0;dashed=1;endArrow=none;endFill=0;exitX=0;exitY=0.5;exitDx=0;exitDy=0;exitPerimeter=0;" edge="1" parent="MmvqRHkEWOUDkkOpJDoZ-3" source="MmvqRHkEWOUDkkOpJDoZ-26" target="MmvqRHkEWOUDkkOpJDoZ-23">
          <mxGeometry relative="1" as="geometry">
            <mxPoint x="217" y="701.29" as="sourcePoint" />
            <mxPoint x="166" y="702" as="targetPoint" />
          </mxGeometry>
        </mxCell>
        <mxCell id="MmvqRHkEWOUDkkOpJDoZ-28" value="Сотрудники Фонда имеют доступ к странице добавления предварительной&lt;br/&gt;информации вместо страницы заявок" style="shape=note;whiteSpace=wrap;html=1;backgroundOutline=1;darkOpacity=0.05;size=11;" vertex="1" parent="1">
          <mxGeometry x="26" y="1558.5" width="160" height="120" as="geometry" />
        </mxCell>
        <mxCell id="MmvqRHkEWOUDkkOpJDoZ-29" value="" style="edgeStyle=orthogonalEdgeStyle;rounded=0;orthogonalLoop=1;jettySize=auto;html=1;dashed=1;endArrow=none;endFill=0;" edge="1" parent="1" source="MmvqRHkEWOUDkkOpJDoZ-28" target="MmvqRHkEWOUDkkOpJDoZ-30">
          <mxGeometry relative="1" as="geometry">
            <mxPoint x="256" y="1600" as="targetPoint" />
            <mxPoint x="186" y="1600" as="sourcePoint" />
          </mxGeometry>
        </mxCell>
        <mxCell id="MmvqRHkEWOUDkkOpJDoZ-30" value="Сотрудник Фонда" style="shape=umlActor;verticalLabelPosition=bottom;verticalAlign=top;html=1;outlineConnect=0;" vertex="1" parent="1">
          <mxGeometry x="256" y="1588.5" width="30" height="60" as="geometry" />
        </mxCell>
        <mxCell id="MmvqRHkEWOUDkkOpJDoZ-31" value="Жюри" style="shape=umlActor;verticalLabelPosition=bottom;verticalAlign=top;html=1;outlineConnect=0;" vertex="1" parent="1">
          <mxGeometry x="250" y="1905" width="30" height="60" as="geometry" />
        </mxCell>
        <mxCell id="MmvqRHkEWOUDkkOpJDoZ-32" style="rounded=0;orthogonalLoop=1;jettySize=auto;html=1;entryX=0;entryY=0.5;entryDx=0;entryDy=0;endArrow=none;endFill=0;" edge="1" parent="1" source="MmvqRHkEWOUDkkOpJDoZ-30" target="MmvqRHkEWOUDkkOpJDoZ-21">
          <mxGeometry relative="1" as="geometry">
            <mxPoint x="290" y="1580" as="sourcePoint" />
            <mxPoint x="390" y="1609" as="targetPoint" />
          </mxGeometry>
        </mxCell>
        <mxCell id="MmvqRHkEWOUDkkOpJDoZ-33" style="rounded=0;orthogonalLoop=1;jettySize=auto;html=1;endArrow=none;endFill=0;entryX=0;entryY=0.5;entryDx=0;entryDy=0;" edge="1" parent="1" source="MmvqRHkEWOUDkkOpJDoZ-31" target="MmvqRHkEWOUDkkOpJDoZ-4">
          <mxGeometry relative="1" as="geometry">
            <mxPoint x="280" y="1970" as="sourcePoint" />
            <mxPoint x="380" y="1810" as="targetPoint" />
          </mxGeometry>
        </mxCell>
        <mxCell id="MmvqRHkEWOUDkkOpJDoZ-34" style="rounded=0;orthogonalLoop=1;jettySize=auto;html=1;endArrow=none;endFill=0;entryX=0;entryY=0.5;entryDx=0;entryDy=0;" edge="1" parent="1" source="MmvqRHkEWOUDkkOpJDoZ-31" target="MmvqRHkEWOUDkkOpJDoZ-22">
          <mxGeometry relative="1" as="geometry">
            <mxPoint x="290" y="1979" as="sourcePoint" />
            <mxPoint x="390" y="1836" as="targetPoint" />
          </mxGeometry>
        </mxCell>
        <mxCell id="MmvqRHkEWOUDkkOpJDoZ-35" style="rounded=0;orthogonalLoop=1;jettySize=auto;html=1;endArrow=none;endFill=0;entryX=0;entryY=0.5;entryDx=0;entryDy=0;" edge="1" parent="1" source="MmvqRHkEWOUDkkOpJDoZ-31" target="MmvqRHkEWOUDkkOpJDoZ-23">
          <mxGeometry relative="1" as="geometry">
            <mxPoint x="290" y="1999" as="sourcePoint" />
            <mxPoint x="390" y="1993" as="targetPoint" />
          </mxGeometry>
        </mxCell>
      </root>
    </mxGraphModel>
  </diagram>
</mxfile>
